<svg width="826" height="171" viewBox="0 0 826 171" fill="none" xmlns="http://www.w3.org/2000/svg">
<path d="M23.8378 0H53.9486H77.3682C100.267 0 103.098 18.3151 101.438 26.5983C94.1274 63.0752 79.2362 137.271 78.1581 142.241C77.4594 145.463 78.9731 145.923 80.1098 142.702C94.2204 102.712 122.934 21.3523 124.904 15.8302C127.971 7.31685 139.588 -2.76107 155.155 1.01239C167.608 4.03117 171 17.3027 171 23.4691V149.742C171 158.624 161.205 175.457 140.61 169.898C120.016 164.339 121.745 144.849 125.183 135.799C137.017 108.434 161.177 52.5248 163.147 47.8126C164.205 45.2816 162.971 44.6834 161.428 46.9383C140.827 77.034 97.4979 140.336 88.9851 152.779C80.4722 165.223 70.1658 168.472 63.7068 168.472C14.7488 168.472 0 120.429 0 96.4535V24.6196C0 5.1448 15.8918 0.0920358 23.8378 0Z" fill="#b2afbb"/>
<path fill-rule="evenodd" clip-rule="evenodd" d="M350.362 134.468C344.046 143.565 334.912 150.933 320.177 150.933C286.363 150.933 271.492 129.158 271.492 101.187V21.5212H290.612V101.187C290.612 119.598 299.641 134.646 320.177 134.646C340.535 134.646 349.387 119.598 349.387 101.187V21.5212H368.507V56.3969H368.509V147.924H350.362V134.468ZM380.285 56.3968V147.924H398.52V104.196C398.52 80.8274 409.142 69.6742 422.243 69.6742C434.812 69.6742 440.654 77.4638 440.654 92.6888V147.924H458.712V89.6792C458.712 69.8514 449.682 54.0953 425.783 54.0953C411.62 54.0953 403.123 62.593 398.343 73.038V56.3968H380.285ZM544.992 150.225C567.12 150.225 581.638 138.895 586.418 119.067H568.536C564.82 129.689 556.852 135.354 544.638 135.354C526.934 135.354 515.604 120.837 515.604 102.249C515.604 83.483 526.934 68.7892 544.638 68.7892C558.092 68.7892 564.642 76.0476 568.006 84.7222H585.71C581.992 67.0188 568.006 54.0953 544.992 54.0953C517.02 54.0953 497.546 73.746 497.546 102.249C497.546 130.574 517.02 150.225 544.992 150.225ZM639.759 150.225C612.319 150.225 593.199 130.043 593.199 102.249C593.199 74.4542 612.319 54.0953 639.759 54.0953C667.199 54.0953 686.143 74.4542 686.143 102.249C686.143 130.043 667.199 150.225 639.759 150.225ZM611.257 102.249C611.257 120.306 622.587 135.177 639.759 135.177C656.755 135.177 668.263 120.306 668.263 102.249C668.263 84.014 656.755 69.1432 639.759 69.1432C622.587 69.1432 611.257 84.014 611.257 102.249ZM747.574 56.3968V147.924H765.808V104.196C765.808 80.8274 776.43 69.6742 789.53 69.6742C802.1 69.6742 807.942 77.4638 807.942 92.6888V147.924H826V89.6792C826 69.8514 816.97 54.0953 793.07 54.0953C778.908 54.0953 770.41 62.593 765.63 73.038V56.3968H747.574ZM712.159 74.1002V56.3968H694.102V147.923H712.336V105.435C712.336 80.2964 722.25 75.5164 731.987 73.9232C734.642 73.215 738.714 73.038 739.599 73.038V55.8656C726.145 55.8656 716.939 60.9996 712.159 74.1002ZM470.04 147.923V56.3965H488.274V147.923H470.04ZM490.455 32.9961C490.455 39.019 485.572 43.9016 479.549 43.9016C473.526 43.9016 468.644 39.019 468.644 32.9961C468.644 26.9731 473.526 22.0905 479.549 22.0905C485.572 22.0905 490.455 26.9731 490.455 32.9961Z" fill="#b2afbb"/>
</svg>
